Simulation
nRows=19
nColumns=15
endheader
time  TH_x TH_y TH_z SC_y  SC_z  SC_x  AC_y  AC_z  AC_x  GH_y  GH_z  GH_yy  EL_x  PS_y
2.0666666666666664  0.000000  0.000000  0.000000  -26.91817718120752  13.081478385018876  25.636263271283696  64.88465819481864  10.927342100618148  17.81128167348531  44.315519806326975  70.09625281820404  -18.92728862541773  16.375940489623932  120.000000
2.1071895424836597  0.000000  0.000000  0.000000  -26.956659131068317  13.087700375129412  25.689534346337233  64.83255129199841  10.937558356757243  17.816064101256533  44.36871700087875  70.07211910603428  -18.950953714979182  16.416210507171492  120.000000
2.1477124183006535  0.000000  0.000000  0.000000  -26.99355246703824  13.08282111561167  25.732194142668057  64.75104054955649  10.963941740157273  17.80497598776557  44.420021663573706  70.02717923177666  -19.04352779609838  16.459911336444417  120.000000
2.188235294117647  0.000000  0.000000  0.000000  -27.015649189867077  13.06056600246818  25.752113219537677  64.64475211005019  10.999549516158774  17.762955976751634  44.45875635013608  69.9628814313988  -19.225908421463103  16.489275117511202  120.000000
2.22875816993464  0.000000  0.000000  0.000000  -27.01021825090196  13.014990810390719  25.738292571150073  64.51805105423408  11.037246510986249  17.674872645814034  44.474977211586676  69.88028999376843  -19.517650959026533  16.487533916771703  120.000000
2.269281045751634  0.000000  0.000000  0.000000  -26.966618600504297  12.941125620043918  25.682162766475525  64.37428243035114  11.070324418097483  17.527154586948882  44.46109420749577  69.77940246019166  -19.935349806886055  16.44094142528716  120.000000
2.3098039215686272  0.000000  0.000000  0.000000  -26.87785579737736  12.835512703691613  25.578873543327965  64.21497923630439  11.093325657274505  17.30906027232393  44.41307784058872  69.65829366869674  -20.490988100742637  16.34114360050755  120.000000
2.3503267973856206  0.000000  0.000000  0.000000  -26.741184443253182  12.696134563421634  25.427740441796356  64.03919904951348  11.102829547493188  17.013623908819806  44.33108384835649  69.51255877241493  -21.190631081328114  16.18680943828559  120.000000
2.390849673202614  0.000000  0.000000  0.000000  -26.557516366455243  12.522171453226372  25.231651197919753  63.84352683418308  11.098025741680974  16.637909971280212  44.21929984847067  69.33531444999952  -22.034689462601815  15.983259105930701  120.000000
2.4313725490196076  0.000000  0.000000  0.000000  -26.330035707489806  12.313750606472157  24.995674829972558  63.622697505984185  11.080531169624846  16.182714588693315  44.08511191901711  69.11792731041349  -23.019033908638715  15.740459038360552  120.000000
2.471895424836601  0.000000  0.000000  0.000000  -26.063052885143907  12.071884812659036  24.72572047384312  63.37070945858948  11.053894836737575  15.651803895962175  43.93803774113537  68.85099549546581  -24.13666687841293  15.47066313462001  120.000000
2.5124183006535943  0.000000  0.000000  0.000000  -25.761330061970938  11.798554996719735  24.427555800266504  63.08195295021519  11.022826978154947  15.05113756038241  43.78852971060986  68.52555894275396  -25.37831203027302  15.186710262395234  120.000000
2.552941176470588  0.000000  0.000000  0.000000  -25.430053999735968  11.496509590871671  24.106501495082828  62.75247981996215  10.992553899177295  14.388127668668718  43.64696726423681  68.13427744136254  -26.732204083924593  14.901094237818876  120.000000
2.5934640522875814  0.000000  0.000000  0.000000  -25.07512490666902  11.169111765333552  23.767385882913544  62.381329912129765  10.968107380571274  13.671456344267561  43.522840375323874  67.67284849656178  -28.183080768333905  14.625015098990701  120.000000
2.6339869281045747  0.000000  0.000000  0.000000  -24.703173506528568  10.820337822887089  23.41463222647325  61.971597752665524  10.953783774299554  12.911289252161316  43.424136741739396  67.1412564449094  -29.7108115180898  14.36715854419634  120.000000
2.6745098039215685  0.000000  0.000000  0.000000  -24.32145690039329  10.45470675222637  23.052402333041844  61.53103890995973  10.95263975565144  12.119461287056703  43.35698754603254  66.54455775597584  -31.289144923456472  14.132878741152728  120.000000
2.7150326797385618  0.000000  0.000000  0.000000  -23.93790444328699  10.077324686087824  22.684487509592717  61.07194214569587  10.966239638870851  11.309527269465645  43.32572728822884  65.89294277341148  -32.88580027728658  13.924336621186331  120.000000
2.755555555555555  0.000000  0.000000  0.000000  -23.56120887511261  9.69400986285147  22.31404636385197  60.610092111595364  10.994587906315997  10.496653208084801  43.33322414127939  65.20107761462809  -34.463566988482114  13.741675717356786  120.000000
2.796078431372549  0.000000  0.000000  0.000000  -23.200416415386986  9.311313582041329  21.943839285759356  60.16318970379631  11.0359126145129  9.69718915261588  43.38113455820188  64.48697069387796  -35.98219803188166  13.584329935838438  120.000000
